# xmcd CD database file
#
# Track frame offsets:
#	150
#	27300
#	51037
#	93118
#	118051
#	157648
#	184648
#	207335
#	231848
#	256238
#
# Disc length: 3651 seconds
#
# Revision: 0
# Processed by: cddbd v1.5.1PL2 Copyright (c) Steve Scherf et al.
# Submitted via: CDex 1.70beta2
#
DISCID=750e410a
DTITLE=The Modern Jazz Quartet - Live At The Montreux Jazz Festival '82
DYEAR=1900
DGENRE=Jazz
TTITLE0=The Modern Jazz Quartet - Django
TTITLE1=The Modern Jazz Quartet - Jasmin Tree
TTITLE2=The Modern Jazz Quartet - Odd's Against Tomorrow
TTITLE3=The Modern Jazz Quartet - The Cylinder
TTITLE4=The Modern Jazz Quartet - The Martyr
TTITLE5=The Modern Jazz Quartet - True Blues
TTITLE6=The Modern Jazz Quartet - Traveling
TTITLE7=The Modern Jazz Quartet - Monterey Mist
TTITLE8=The Modern Jazz Quartet - Bags New Groove
TTITLE9=The Modern Jazz Quartet - Woodin' You
EXTD=
EXTT0=
EXTT1=
EXTT2=
EXTT3=
EXTT4=
EXTT5=
EXTT6=
EXTT7=
EXTT8=
EXTT9=
PLAYORDER=
